<svg xmlns="http://www.w3.org/2000/svg" viewBox="0 0 300 300"><defs><style>.a{fill:#f0f0f7;}.b{fill:#2c2b47;}.c{fill:#fedffd;}.d{fill:#ffc200;}.e{fill:#80beff;}.f{fill:#5a80f9;}.g{fill:#08c48e;}.h{fill:#fff;}.i{fill:#bbe7ff;}</style></defs><title>Support team</title><path class="a" d="M203.362,278.373c-1.737-2-3.573-4.41-6.114-5.132.491-2.049,1.95-4.442-.591-5.8a9.67,9.67,0,0,1-1.36-.7c-.689-.623-.509-4.131-.623-4.066a44.727,44.727,0,0,0-8.591,2,.582.582,0,0,0-.41.541q-.516,10.648-.164,21.3a.563.563,0,0,0,.558.557l12.394-.246a44.066,44.066,0,0,0,6.082-.131c.885-.131,1.41-.475,1.541-1.41C206.445,282.963,204.805,280.028,203.362,278.373Z"/><path class="b" d="M200.657,273.864A7.14,7.14,0,0,0,195.936,276c-.508.509.361,1.2.869.7a6.052,6.052,0,0,1,3.967-1.721c.738-.049.607-1.164-.115-1.115Z"/><path class="c" d="M175.837,202.288a2.271,2.271,0,0,0-2.082-1.541,43.744,43.744,0,0,0-6.394.017c-1.393.016-3.344-.328-4.574.508-1.081.738-1.377,2.148-1.573,3.344a.387.387,0,0,0,0,.2c-.033.246-.05.492-.066.754a.581.581,0,0,0,.41.541c1.082.164,2.393.951,3.41.1.2-.164.393-.9.492-.968a10.262,10.262,0,0,1,2.59-.229c2.066-.213,4.443-.131,6.443-.7A1.649,1.649,0,0,0,175.837,202.288Z"/><path class="d" d="M167.263,205.4a.541.541,0,0,0-.229-.442.483.483,0,0,0-.328-.213,18.984,18.984,0,0,0-5.082-.673c-1.214.1-1.607.951-2.181,1.935a73.3,73.3,0,0,0-4.836,9.869c-1.344-.279-2.672-.885-3.984-1.262a25.272,25.272,0,0,0-6.639-1.132c-3.574-.049-8.345,1.345-7.656,5.738a44.769,44.769,0,0,0-4.443,10.05.567.567,0,0,0,.541.705q10.649.689,21.263,1.934a.551.551,0,0,0,.557-.557c-.164-1.295-.377-2.59-.655-3.869a41.028,41.028,0,0,0,4.246.2c2.508-.017,3.869-.984,5.016-3.181A39.148,39.148,0,0,0,167.263,205.4Z"/><path class="c" d="M86.752,204.354a41.652,41.652,0,0,0,5.2-.623c1.64-.311,3.082-2.344.951-3.2-1.311-.524-3.033-.295-4.41-.36a33.363,33.363,0,0,0-5.574-.05,5.254,5.254,0,0,0-3.115,1.1,2.467,2.467,0,0,0-.3,2.279c-.065.016-.131.016-.213.032a.6.6,0,0,0-.18.066c-.016,0-.016.016-.033.016h0a.414.414,0,0,0-.18.443c.541,4.607.738,9.246,1.262,13.853-8.623.852-17.23,1.77-25.919,1.787a79,79,0,0,0-2.1-14.132.582.582,0,0,0-.541-.41.209.209,0,0,1-.1-.016c.164-2.131.147-3.689-2.443-4.115a26,26,0,0,0-5.754-.213,8.5,8.5,0,0,0-3.673.656c-1.36.8-1.049,2.2.312,2.819a16.836,16.836,0,0,0,4.967,1.246,45.649,45.649,0,0,0-2.574,9.361c-.606,3.2-1.442,6.984-.524,10.2.819,2.918,3.344,4.082,5.951,5.132,3.934,1.59,7.836,3.2,11.787,4.737,6.41,2.492,12.951,3.3,19.623,1.279,5.312-1.606,12-5.3,14.214-10.721,1.492-3.656-.689-7.591-2.016-10.968C89.949,211.108,88.425,207.7,86.752,204.354Z"/><path class="c" d="M268.151,11.758H104.13a1.973,1.973,0,0,0-1.967,1.968V132.6a1.973,1.973,0,0,0,1.967,1.967H268.151a1.973,1.973,0,0,0,1.967-1.967V13.726A1.973,1.973,0,0,0,268.151,11.758Z"/><path class="e" d="M142.082,166.91l-37.034-51.723a51.476,51.476,0,1,0-36.837,17.837c.033-6.066-.1-12.115-.049-18.181a33.719,33.719,0,1,1,2.377-.246c-.066,6.082.082,12.181.049,18.263a51.252,51.252,0,0,0,14.656-3.508l37.034,51.723a4.971,4.971,0,0,0,6.9,1.147l11.754-8.426A4.932,4.932,0,0,0,142.082,166.91Z"/><path class="e" d="M290.234,189.944H20.718a1.973,1.973,0,0,0-1.967,1.967v6.59a1.973,1.973,0,0,0,1.967,1.968H290.234A1.973,1.973,0,0,0,292.2,198.5v-6.59A1.973,1.973,0,0,0,290.234,189.944Z"/><path class="a" d="M285.512,287.9c1.574-.016,5.476.82,5.738-1.639.164-1.607-1.721-4.115-2.606-5.213a15.849,15.849,0,0,0-4.443-3.689,41.793,41.793,0,0,0-10.64-3.934,11.029,11.029,0,0,0-2.983-.574c-1.2.033-1.787.9-2.361,1.983-.689,1.279-1.082,2.3-2.345,2.951a3.907,3.907,0,0,1-5.1-1.442c-.656-.951-.672-3.673-2.2-2a.91.91,0,0,0-.164.246.591.591,0,0,1,.164.688,40.708,40.708,0,0,0-2.3,12.951q11.607-.147,23.2-.278C281.463,287.947,283.48,287.93,285.512,287.9Z"/><path class="a" d="M39.046,281.389a.527.527,0,0,0,0-.279c-.377-1.623-.787-3.262-1.311-4.852a3.949,3.949,0,0,0-1.361-2.312c-1.918-1.2-2.033,1.427-2.574,2.459-1.2,2.23-3.967,1.689-5.082-.229-.492-.836-.738-1.722-1.623-2.23-1.984-1.115-5.164.181-7.131.689-5.279,1.393-11.329,3.344-14,8.59-.639,1.263-1.8,3.722,0,4.525a8.9,8.9,0,0,0,3.361.2l5.213.049,24.591.246a.564.564,0,0,0,.558-.558A31.089,31.089,0,0,0,39.046,281.389Z"/><path class="c" d="M179.755,240.7c-.9-5.147-2.361-13.016-8-15.082-2.967-1.082-6.279-.2-9.082.967a60.826,60.826,0,0,0-8.591,3.968,4.409,4.409,0,0,1-2.59,1.049c-.9-.033-1.82-.164-2.721-.263-1.968-.229-3.935-.459-5.9-.7-3.574-.442-7.131-1.18-10.722-1.541a.562.562,0,0,0-.541.41c-1.7,4.263-3.393,8.755-2.754,13.427a11.7,11.7,0,0,0,1.656,4.639c0,1.41.082,2.82.213,4.214a45.087,45.087,0,0,0,3.41,13.148c-5.082.245-10.541.377-15.509-.623a.557.557,0,0,0-.688.393c-.443,1.853-.771,3.721-1.082,5.607-.148.934-.3,1.869-.443,2.82a6.445,6.445,0,0,1-.443,2.2.569.569,0,0,0,.328.82,95.432,95.432,0,0,0,20.821,4.787c5.311.59,12.59,2,16.377-2.8,3.754-4.755,3.869-11.656,3.525-17.411-.148-2.393-.361-4.8-.623-7.18,2.59-.607,5.131-1.361,7.59-2.115a21.51,21.51,0,0,0,.607,2.672c.393,1.967.82,3.935,1.311,5.886q1.452,5.852,3.476,11.557a.592.592,0,0,0,.852.312.48.48,0,0,0,.427.213,45.632,45.632,0,0,0,5.606-.131c.935-.082,2.312-.033,3-.8.656-.737.558-2.016.623-2.918.164-1.951.328-3.885.459-5.836C180.854,255.142,181,247.831,179.755,240.7Z"/><path class="f" d="M109.015,234.945a14.765,14.765,0,0,0-3.819-4.574c-5.132-3.525-13.2-1.279-19.165.508-4.984,1.509-10.361,4.755-18.886,4.558-6.049-.869-15.033-4.574-21.017-5.853-5.967-1.278-12.344-1.754-18.049.41a11.782,11.782,0,0,0-5.509,3.9c-1.524,2.164-1.885,4.918-2.065,7.574a72.349,72.349,0,0,0,4.983,31.345l.345.049a43.635,43.635,0,0,0,9.475.115l.345-.377q1.377-10.353,2.754-20.689c4.459,3.377,10.246,4.311,15.8,4.9,4.885.524,10.639.508,13.7-3.328,2.049,3.131,6.426,3.574,10.164,3.311a57.492,57.492,0,0,0,19.788-4.984l-.214.115a96.688,96.688,0,0,0-.721,19.952h8.131l1.623.065a84.941,84.941,0,0,0,4.624-18.689C112.229,247.027,112.311,240.339,109.015,234.945Z"/><path class="c" d="M201.444,200.551a35.448,35.448,0,0,0-10.606.59c-1.591.36-3.083,1.869-1.3,3.213s5.132.7,7.41.295c0,.361,0,.705-.016,1.066a.563.563,0,0,0,.557.557,38.372,38.372,0,0,0,5.656-.377.462.462,0,0,0,.361-.688.547.547,0,0,0,.049-.246C203.526,202.829,204.248,200.813,201.444,200.551Z"/><path class="c" d="M277.824,202.206c-.263-1.721-2.935-1.262-4.082-1.278-2.787-.017-5.591-.082-8.378-.049-2.1.016-4.2.213-5.279,2.262a.464.464,0,0,0-.065.246.57.57,0,0,0-.721.065l-.05.05a.58.58,0,0,0,0,.786c.05.05.082.1.131.148a.975.975,0,0,0,.148.115c.853,1.1,1.7,2.213,2.574,3.311a.568.568,0,0,0,.885-.114c1.033-1.8,4.213-.968,5.984-.984a52.649,52.649,0,0,0,5.557-.377c.328-.033.689-.328.541-.705-.016-.049-.049-.115-.065-.164.787-.033,1.541-.213,1.738-.9a1,1,0,0,0-.017-.623A1.622,1.622,0,0,0,277.824,202.206Z"/><path class="f" d="M260.266,203.043l-.1-.23c-6.508,2.557-15.443,7.312-21.656,10.509s-12.984,6.754-19.951,6.229c-4.541-.344-9.132-2.361-13.706-4.59a55.924,55.924,0,0,1-1.492-10.558,37.18,37.18,0,0,0-6.328-.164c-2.787,4.607-6.131,9.853-5.164,15.148a7.087,7.087,0,0,0,1.377,3.246,9.538,9.538,0,0,0,2.919,2.164,51.406,51.406,0,0,0,11.065,3.935,27.974,27.974,0,0,0-.278,7.295l.18-.311a47.757,47.757,0,0,0,31.28-5.738c7.131-4.132,13.049-10.017,18.886-15.853l5.836-5.836.033-.673C262.167,206.075,261.217,204.551,260.266,203.043Z"/><path class="d" d="M272.758,241.535c-.066-6.934-1.639-14.131-8.8-16.918-7.574-2.935-16.148-1.246-23.574,1.3-3.672,1.262-7.082,3.049-10.7,4.41a63.954,63.954,0,0,1-8.689,2.459,132.364,132.364,0,0,1-13.886,2.344.563.563,0,0,0-.557.558c.246,4.787.852,9.639,2.869,14.049a24.81,24.81,0,0,0,2.951,4.837c.59.77,1.229,1.524,1.885,2.246.443.491,1.148,1.032,1.656,1.606a55.5,55.5,0,0,0-17.1,1.131c-1.18.263-3.541.427-4.377,1.328-.738.8-.082,2.886,0,3.853.2,2.3.426,4.574.721,6.869.066.59.115,1.393.656,1.754a10.258,10.258,0,0,0,2.885.574c1.181.213,2.361.41,3.541.606,8.2,1.312,16.476,2.066,24.739,2.771,6.1.508,14.344.262,17.246-6.328,1.574-3.59.295-7.558-1.082-11a50.218,50.218,0,0,0-5.328-9.919c.377,0,.754-.016,1.1,0a41.294,41.294,0,0,0,4.935-.147,45.269,45.269,0,0,0,8.738-1.672,17.909,17.909,0,0,1,.967,3.737c.377,1.41.754,2.8,1.181,4.2a73.753,73.753,0,0,0,3.016,8.23c.623,1.41,1.3,2.8,2,4.18.443.853.59,1.46,1.525,1.689,1.36.344,3.377-.066,4.738-.246a31.259,31.259,0,0,0,4.77-1.033.491.491,0,0,0,.345-.3.549.549,0,0,0,.065-.246C271.61,259.47,272.856,250.536,272.758,241.535Z"/><path class="c" d="M231.691,239.486c-.393-.59-1.377-.033-.967.574,2.049,3.066,4.574,6.115,6.131,9.443.312.656,1.279.082.967-.574C236.265,245.585,233.724,242.535,231.691,239.486Z"/><path class="c" d="M253.659,238.289a19.436,19.436,0,0,0-1.18,8.706c.065.7,1.18.721,1.114,0a18.825,18.825,0,0,1,1.132-8.41C254.987,237.912,253.905,237.617,253.659,238.289Z"/><path class="c" d="M221.986,260.159a22.864,22.864,0,0,0-5.476-1.721c-.7-.132-1,.95-.295,1.082a21.921,21.921,0,0,1,5.2,1.606C222.068,261.421,222.642,260.454,221.986,260.159Z"/><path class="b" d="M155.492,252.6a62.29,62.29,0,0,1-13.312-.032c-4.229-.525-7.82-1.574-10.492-5.132-.426-.574-1.41-.016-.967.574,2.508,3.328,5.738,4.869,9.8,5.459a63.587,63.587,0,0,0,14.984.246C156.214,253.667,156.214,252.536,155.492,252.6Z"/><path class="b" d="M168.443,246.208a16.208,16.208,0,0,1-4.114,4.213c-.591.41-.033,1.377.573.967a18.043,18.043,0,0,0,4.525-4.606C169.8,246.175,168.837,245.618,168.443,246.208Z"/><path class="b" d="M140.934,266.946a39.42,39.42,0,0,0-6.344-2.23.561.561,0,0,0-.3,1.082,38.176,38.176,0,0,1,6.082,2.115C141.033,268.208,141.59,267.241,140.934,266.946Z"/><path class="c" d="M36.636,243.158a26.913,26.913,0,0,1,1.935,9.2c.016.722,1.147.722,1.115,0a27.449,27.449,0,0,0-1.968-9.508C37.456,242.191,36.374,242.486,36.636,243.158Z"/><path class="c" d="M97.982,244.093a40.758,40.758,0,0,0-1.737,8c-.082.721,1.032.705,1.114,0a40.027,40.027,0,0,1,1.7-7.7C99.277,243.716,98.2,243.421,97.982,244.093Z"/><path class="b" d="M145.705,208.616c-.787-2.573-3.443-3.491-5.935-3.459-2.18.033-4.246.558-6.442.115-1.837-.377-3.64-1.115-5.542-.836-1.672.246-2.836,1.443-4.377,1.967-2.1.705-4.049-.557-6.016-1.082a5.933,5.933,0,0,0-4.082.213A10.872,10.872,0,0,1,110,206.748a21.522,21.522,0,0,1-3.082-.148c-1.951-.082-5.935.672-5.23,3.557a2.48,2.48,0,0,0,2.033,1.673c1.935.377,3.7-1,5.623-.033,2.541,1.279,4.066,3.738,7.23,3.016a7.875,7.875,0,0,1,3.213-.442c.935.131,1.8.524,2.722.721a5.3,5.3,0,0,0,3.983-.623c.738-.426,1.394-1,2.132-1.459a5.814,5.814,0,0,1,4.344-.7,6.723,6.723,0,0,0,4.426-.41c1.558-.852,2.541-1.672,4.476-1.147a5.079,5.079,0,0,0,2.131.442,1.7,1.7,0,0,0,1.525-1.967A.566.566,0,0,0,145.705,208.616Z"/><path class="b" d="M226.363,211.731a.45.45,0,0,0-.164-.262,2.483,2.483,0,0,0,.213-.82.562.562,0,0,0-.557-.557,4.837,4.837,0,0,0-.689.016.862.862,0,0,0-.032-1.1c-.558-.82-1.787-.426-2.492-.016-1.607.934-3.607,3.557-2.541,5.426a2.5,2.5,0,0,1,.983.279,5.055,5.055,0,0,0,3.623-.656C225.691,213.551,226.658,212.961,226.363,211.731Z"/><path class="c" d="M146.148,208.6a1.074,1.074,0,0,0-1.05-.295.471.471,0,0,0-.606.115,3.162,3.162,0,0,0-1.033,2.213,1.52,1.52,0,0,0,1.394,1.443c.868.032,1.229-.656,1.426-1.378C146.459,210.026,146.689,209.157,146.148,208.6Z"/><path class="c" d="M222.215,212.338c-1.016-.164-1.606.77-1.852,1.623a3.05,3.05,0,0,0,.1,2.459,1.243,1.243,0,0,0,1.459.82c.984-.3,1.509-1.853,1.623-2.755A1.826,1.826,0,0,0,222.215,212.338Z"/><path class="f" d="M124.016,286.652a22.6,22.6,0,0,0-2.935-5.525,23.741,23.741,0,0,0-1.737-2.115,33.154,33.154,0,0,1-2.623-2.377c-.918-1.213.213-4.558.541-5.968a42.458,42.458,0,0,0,1.131-6.2.229.229,0,0,0-.131-.246c-.017-.017-.05-.017-.066-.033-2.18-.541-4.377-1-6.59-1.41a.286.286,0,0,0-.345.2,132.333,132.333,0,0,0-5.918,23.705.3.3,0,0,0,.263.361c6,.77,12.115.213,18.131-.016C123.9,287,124.081,286.832,124.016,286.652Z"/><path class="a" d="M126.885,284.947c-1.59-5.427-7.082-8.066-12.066-9.574-2.541-.771-5.82-2.132-8.525-1.8s-2.344,3.574-4.738,4.23a2.852,2.852,0,0,1-3.18-1.41c-.328-.607-.246-1.312-.574-1.9a1.347,1.347,0,0,0-1.525-.77c-.787.164-1.246.967-1.541,1.639a34.79,34.79,0,0,0-1.623,5.738.815.815,0,0,0,0,.279,31.081,31.081,0,0,0-.639,6.3.574.574,0,0,0,.557.557q10.8-.1,21.608-.213c3.459-.033,6.983.115,10.426-.115C126.983,287.8,127.393,286.7,126.885,284.947Z"/><path class="f" d="M200.92,286.094a11.283,11.283,0,0,0-4.886-6.918,27.358,27.358,0,0,0-7.951-3.394c-1.77-.508-3.541-.95-5.344-1.328-1.164-.245-2.541-.393-3.426.41a9.377,9.377,0,0,0-1.263,2.2,3.352,3.352,0,0,1-6.131-1.164c-.1-.508-.131-1.131-.574-1.41-.754-.459-1.508.558-1.787,1.394-.59,1.819-1.115,3.672-1.524,5.524l.131-.409a28.152,28.152,0,0,0-.738,6.836q16.008-.173,32.034-.328c.557,0,1.213-.082,1.459-.574A1.8,1.8,0,0,0,200.92,286.094Z"/><path class="b" d="M66.063,211.338c-.59-.066-1.639-.18-1.819.59a.845.845,0,0,0,.049.492,3.364,3.364,0,0,0-.787.361.567.567,0,0,0,0,.967,1.027,1.027,0,0,0-.328.426c-.279.738.459,1.131,1.033,1.344,1.262.492,3.836,1.361,4.623-.213a.426.426,0,0,0,.328-.393C69.49,212.928,67.932,211.551,66.063,211.338Z"/><path class="c" d="M69.129,214.289a1.336,1.336,0,0,0-1.623-.754,1.188,1.188,0,0,0-.557.426.525.525,0,0,0-.213.279,2.131,2.131,0,0,0-.132.426,4.005,4.005,0,0,0-.131.557,2.6,2.6,0,0,0,0,1.066c.1.754.459,1.377,1.328,1.344C69.391,217.568,69.67,215.42,69.129,214.289Z"/><path class="b" d="M45.473,205.846a49.316,49.316,0,0,1,5.164-.459c.721-.017.721-1.148,0-1.115a50.57,50.57,0,0,0-5.459.492c-.7.115-.41,1.2.3,1.082Z"/><path class="b" d="M79.965,204.141a24.421,24.421,0,0,1,6.378.213c.7.115,1.016-.967.3-1.082a25.993,25.993,0,0,0-6.673-.246c-.7.049-.7,1.18,0,1.115Z"/><path class="b" d="M15.947,275.536a4.636,4.636,0,0,1,2.787,3.361c.148.7,1.23.41,1.082-.3a5.637,5.637,0,0,0-3.295-4.033c-.672-.278-1.246.689-.574.967Z"/><path class="b" d="M18.964,274.487a8.132,8.132,0,0,1,3.016,4.41.561.561,0,0,0,1.082-.3,9.309,9.309,0,0,0-3.541-5.082c-.574-.426-1.131.541-.557.967Z"/><path class="b" d="M112,272.9a9.748,9.748,0,0,0-2.656,5.869c-.065.721,1.05.7,1.115,0a8.4,8.4,0,0,1,2.328-5.082C113.294,273.159,112.491,272.372,112,272.9Z"/><path class="b" d="M114.18,274.52a8.684,8.684,0,0,0-1.623,4.492c-.066.721,1.065.721,1.114,0a7.554,7.554,0,0,1,1.476-3.918C115.573,274.5,114.606,273.946,114.18,274.52Z"/><path class="b" d="M275.873,271.208a4.578,4.578,0,0,0-2.918,4.574c.049.722,1.18.722,1.114,0a3.467,3.467,0,0,1,2.082-3.492c.689-.278.394-1.36-.278-1.082Z"/><path class="b" d="M278.414,272.651a7.1,7.1,0,0,0-2.344,4.623c-.082.722,1.032.7,1.114,0a6.05,6.05,0,0,1,2.017-3.82c.541-.491-.263-1.278-.787-.8Z"/><path class="c" d="M186.313,274.028a5.5,5.5,0,0,0-2.459,5.23c.082.705,1.213.721,1.114,0a4.41,4.41,0,0,1,1.9-4.263C187.477,274.586,186.919,273.618,186.313,274.028Z"/><path class="c" d="M189.2,275.11a5.31,5.31,0,0,0-1.836,5.033c.115.705,1.2.41,1.082-.295A4.228,4.228,0,0,1,190,275.9C190.542,275.454,189.756,274.651,189.2,275.11Z"/><path class="g" d="M167.263,96.187H75.424a4.768,4.768,0,0,0-4.754,4.754V155.5a4.768,4.768,0,0,0,4.754,4.754h70.265a1.968,1.968,0,0,1,1.524.722l13.378,16.279a.99.99,0,0,0,1.754-.623v-15.8a.581.581,0,0,1,.574-.574h4.344a4.768,4.768,0,0,0,4.754-4.754V100.941A4.768,4.768,0,0,0,167.263,96.187Z"/><path class="h" d="M96.818,121.909a6.722,6.722,0,1,0,6.722,6.722A6.73,6.73,0,0,0,96.818,121.909Z"/><path class="h" d="M145.869,121.909a6.722,6.722,0,1,0,6.721,6.722A6.731,6.731,0,0,0,145.869,121.909Z"/><path class="h" d="M121.508,121.909a6.722,6.722,0,1,0,6.721,6.722A6.731,6.731,0,0,0,121.508,121.909Z"/><path class="h" d="M202.461,26.447c18.131-.1,36.247-.377,54.362,0a1.189,1.189,0,0,0,0-2.377c-18.115-.377-36.247-.1-54.362,0A1.189,1.189,0,0,0,202.461,26.447Z"/><path class="h" d="M256.823,48.841c-18.115-.377-36.247-.1-54.362,0a1.189,1.189,0,0,0,0,2.377c18.131-.1,36.247-.377,54.362,0A1.189,1.189,0,0,0,256.823,48.841Z"/><path class="h" d="M256.823,36.152c-18.115-.377-36.247-.1-54.362,0a1.19,1.19,0,0,0,0,2.378c18.131-.1,36.247-.378,54.362,0A1.19,1.19,0,0,0,256.823,36.152Z"/><path class="e" d="M291.447,130.7l-5.1-1.836a50.463,50.463,0,0,0-.574-12.492l1.639-.672a5.354,5.354,0,0,0,2.918-6.968l-5.656-13.8a5.353,5.353,0,0,0-6.967-2.919L275.1,93.072a49.882,49.882,0,0,0-9.574-8.984l.984-2.344a5.365,5.365,0,0,0-2.869-7l-13.755-5.771a5.365,5.365,0,0,0-7,2.869l-1.311,3.115a50.143,50.143,0,0,0-13.214.344l-1.442-3.934a5.364,5.364,0,0,0-6.87-3.164l-14,5.147a5.365,5.365,0,0,0-3.164,6.869L204.9,85.7a50.357,50.357,0,0,0-8.475,8.639l-4.8-2.016a5.365,5.365,0,0,0-7,2.869l-5.77,13.754a5.365,5.365,0,0,0,2.868,7l4.8,2.016a50.009,50.009,0,0,0,.082,14.509l-4,1.967a5.354,5.354,0,0,0-2.443,7.148l6.574,13.394a5.354,5.354,0,0,0,7.148,2.442l2.918-1.426a50.043,50.043,0,0,0,11.787,10.853l-1.2,3.311a5.35,5.35,0,0,0,3.23,6.837l14.05,5.049a5.349,5.349,0,0,0,6.836-3.23l1.344-3.754a49.82,49.82,0,0,0,14.066-1.033l3.131,5.033a5.358,5.358,0,0,0,7.361,1.705l12.656-7.9a5.358,5.358,0,0,0,1.7-7.361l-1.967-3.147a50.156,50.156,0,0,0,8.1-9.3l4.9,1.755a5.35,5.35,0,0,0,6.837-3.23l5.049-14.05A5.37,5.37,0,0,0,291.447,130.7Zm-26.476,6.836a31.162,31.162,0,1,1-16.689-40.788A31.164,31.164,0,0,1,264.971,137.532Z"/><path class="e" d="M53.506,68.547q-1.919,10.77-3.853,21.525c-.262,1.492,2.016,2.131,2.3.639q1.918-10.77,3.853-21.525c.278-1.508-2.017-2.147-2.3-.639Z"/><path class="e" d="M60.539,73.4,56.8,98.236c-.23,1.492,2.065,2.148,2.295.64l3.738-24.837c.229-1.508-2.066-2.148-2.3-.64Z"/><path class="e" d="M194.411,60.465l-.36-6.787a2.448,2.448,0,0,0-2.558-2.312l-2.459.131a22.81,22.81,0,0,0-2.443-5.148l.574-.573a2.434,2.434,0,0,0,0-3.443l-4.8-4.8a2.436,2.436,0,0,0-3.443,0l-.9.9a22.176,22.176,0,0,0-5.606-2.082V35.2a2.449,2.449,0,0,0-2.443-2.443h-6.8a2.448,2.448,0,0,0-2.443,2.443v1.541a23.071,23.071,0,0,0-5.492,2.475l-1.295-1.393a2.452,2.452,0,0,0-3.443-.132l-4.984,4.624a2.45,2.45,0,0,0-.131,3.442l1.8,1.951a23.283,23.283,0,0,0-2.032,5.131h-2.361a2.45,2.45,0,0,0-2.443,2.443v6.771a2.449,2.449,0,0,0,2.443,2.442h2.377a22.788,22.788,0,0,0,2.59,6.083L146.41,72.1a2.455,2.455,0,0,0,.229,3.443l5.115,4.476a2.455,2.455,0,0,0,3.443-.23l.967-1.115a22.326,22.326,0,0,0,6.869,2.476l.082,1.606a2.449,2.449,0,0,0,2.558,2.312l6.787-.361a2.447,2.447,0,0,0,2.311-2.557l-.1-1.82a23.22,23.22,0,0,0,5.722-2.9l2.2,1.558a2.453,2.453,0,0,0,3.394-.574l3.934-5.541a2.451,2.451,0,0,0-.573-3.394l-1.377-.983a22.645,22.645,0,0,0,1.77-5.328l2.361-.132A2.482,2.482,0,0,0,194.411,60.465ZM167.378,72.6a13.787,13.787,0,1,1,13.787-13.787A13.786,13.786,0,0,1,167.378,72.6Z"/><path class="h" d="M115.36,93.826c-6.312-.131-12.64.115-18.951-.016-1.23-.033-1.23,2.344,0,2.377,6.311.131,12.639-.115,18.951.016C116.589,96.22,116.589,93.843,115.36,93.826Z"/><path class="i" d="M67.818,168.4,56.6,155.467a1.373,1.373,0,0,1,.131-1.934l7.9-6.935a1.375,1.375,0,0,0-.721-2.393l-34.542-4.771a1.36,1.36,0,0,0-1.558,1.377l.213,34.87a1.367,1.367,0,0,0,2.279,1.016l7.9-6.934a1.388,1.388,0,0,1,1.935.115l11.361,12.8a1.372,1.372,0,0,0,1.934.115l7.115-6.246L67.67,170.3A1.334,1.334,0,0,0,67.818,168.4Z"/><path class="c" d="M153.41,226.666a36.078,36.078,0,0,1-13.82-4.77c-.541-.345-1.033.508-.492.852a36.822,36.822,0,0,0,14.05,4.869c.623.1.885-.852.262-.951Z"/></svg>