<?xml version="1.0" standalone="no"?><!DOCTYPE svg PUBLIC "-//W3C//DTD SVG 1.1//EN" "http://www.w3.org/Graphics/SVG/1.1/DTD/svg11.dtd"><svg t="1593256834781" class="icon" viewBox="0 0 1024 1024" version="1.1" xmlns="http://www.w3.org/2000/svg" p-id="11948" xmlns:xlink="http://www.w3.org/1999/xlink" width="128" height="128"><defs><style type="text/css"></style></defs><path d="M255.69989 67c-89.2 16-161 82-183.6 168.8C63.89989 267.2 63.29989 285.6 64.29989 528.8 64.69989 752 64.89989 757.2 68.69989 774.6c20.6 93 86.6 159.2 180.6 181 12.2 2.8 27.8 3.4 128.2 3.8 103.8 0.8 114.6 0.6 117.4-2.2 2.8-2.8 3-38.6 3-444.4 0-301-0.6-442.6-1.8-445.2-1.8-3.4-5-3.6-113.8-3.4-88.4 0.2-115 0.8-126.6 2.8z m167.8 445.2V888l-75.6-1c-69.6-0.8-77-1.2-91-4.6-59.8-15.4-104-61.4-116.6-121.4-4-18.8-4-480.2-0.2-498.6 11.2-52.2 47.4-95.4 96-114.8 24.4-9.8 35.8-11 115.2-11.2l71.8-0.2v376z m-151.8-262.4c-11.6 2.2-29.4 11.2-39 19.4-19.4 16.8-29.2 40.8-27.6 69 0.8 14.6 1.6 18.6 7.6 30.4 8.8 18 21.8 31.2 39.8 40 12.4 6.2 15.6 6.8 31.8 7.4 14.6 0.6 19.8 0 29.6-3.4 40.2-13.6 64.6-52.6 57.6-92.8-7.8-47.4-53.2-79.4-99.8-70z m316.4-184.6c-0.8 0.6-1.2 201.6-1.2 447 0 404.6 0.2 445.6 3 446.8 5 1.8 149 1.2 166.8-0.8 75.4-8.6 142-54.4 178-122.4 4.6-8.8 10.8-23.4 14-32.4 11.6-34.8 11.4-25.6 11.4-292.2 0-212.8-0.4-244.6-3-258-18.4-96.6-92.2-169.6-189-186.2-13-2.2-33-2.8-97.6-2.8-44.8-0.2-81.8 0.4-82.4 1z m198.2 404.2c29 7.6 52.6 29.6 62.4 57.8 6.2 17.4 6 43-0.2 59-11.4 29.4-33.6 50-62.2 57.6-46.4 12-95.8-16-109.2-62-4-14-3.8-37.8 0.8-52.4 13.8-45.4 62-72.2 108.4-60z" p-id="11949" fill="#ffffff"></path></svg>